<svg viewBox="0 0 32 32" fill="none" xmlns="http://www.w3.org/2000/svg"><path d="M15.962 31.986c3.88.195 8.28-1.72 11.456-3.786.944.39-1.633-8.846-1.9-10.641l.93-9.62-.355-.408c-1.944-1.148-3.545-1.494-5.799-1.627-3.641-.222-7.247.844-9.98 3.266-2.972 2.639-7.333 8.211-7.689 12.13 1.444 6.924 6.549 10.344 13.337 10.686Z" fill="#000"/><path d="M25.851 26.766a2.04 2.04 0 0 0 .342-.25l1.113-1.135-1.113-6.944.771-14.57-1.112-1.305-.042-.026C23.735 1.299 20.703.485 18.295.339c-3.89-.237-7.742.905-10.66 3.528-3.175 2.85-5.066 6.879-5.445 11.111-.52 5.807 1.156 11.731 6.882 14.21 2.489 1.076 5.262 1.25 7.92.858 3.124-.458 6.15-1.684 8.86-3.28Z" fill="#000"/><path fill-rule="evenodd" clip-rule="evenodd" d="M18.322 10.525c-2.918-.471-5.965.495-6.575 4.6-.525 3.816 1.562 5.653 4.095 5.653 1.961 0 4.207-.367 7.132-2.314a.465.465 0 0 1 .437-.048c.15.058.244.176.292.33l1.812 5.848-.02 1.249c-.001.215-.034.419-.22.528-11.398 6.693-22.5 2.964-21.345-10.287.415-4.216 2.337-7.746 4.941-10.08 2.555-2.291 5.973-3.344 9.534-3.13 2.117.127 4.945.863 6.821 1.978a.466.466 0 0 1 .233.439l-.593 9.941a.464.464 0 0 1-.18.345.466.466 0 0 1-.377.097l-6.415-1.072a.467.467 0 0 1-.319-.206c-.075-.114-.067-.236-.068-.373l-.013-1.235.828-2.263Z" fill="#455A78"/><path fill-rule="evenodd" clip-rule="evenodd" d="M18.226 9.428c-2.918-.47-5.965.495-6.575 4.6-.525 3.817 1.562 5.654 4.095 5.654 1.962 0 4.208-.368 7.132-2.314a.466.466 0 0 1 .438-.048c.15.058.253.174.291.33l1.794 7.097a.47.47 0 0 1-.22.528C13.78 31.97 2.677 28.24 3.832 14.988 4.248 10.77 6.17 7.24 8.775 4.907c2.555-2.291 5.973-3.344 9.534-3.13 2.117.127 4.945.862 6.822 1.978a.466.466 0 0 1 .232.439l-.593 9.94a.464.464 0 0 1-.18.346.466.466 0 0 1-.376.098l-6.415-1.073a.462.462 0 0 1-.32-.206.463.463 0 0 1-.067-.372l.814-3.497v-.002Z" fill="#A7BAD7"/><path fill-rule="evenodd" clip-rule="evenodd" d="m18.452 9.253-.837 3.592a.366.366 0 0 0 .054.297.37.37 0 0 0 .255.165l6.406 1.07a.366.366 0 0 0 .301-.077.363.363 0 0 0 .144-.275l.593-9.93a.373.373 0 0 0-.186-.35c-1.848-1.099-4.63-1.834-6.77-1.963-3.444-.207-6.865.782-9.453 3.102-2.864 2.567-4.561 6.2-4.904 10.007-.454 5.047.85 10.336 5.887 12.51 2.2.95 4.672 1.08 7.022.738 2.912-.426 5.741-1.581 8.267-3.065a.374.374 0 0 0 .176-.421l-1.79-7.09a.368.368 0 0 0-.234-.262.37.37 0 0 0-.35.038c-2.265 1.508-4.442 2.328-7.175 2.328-1.258 0-2.462-.45-3.274-1.43-.994-1.201-1.125-2.84-.913-4.326.24-1.672.946-3.211 2.46-4.083 1.263-.73 2.803-.822 4.218-.593l.102.017Z" fill="url(#a)"/><path fill-rule="evenodd" clip-rule="evenodd" d="M25.01 22.539c-6.213.485-12.46 1.204-18.612 2.216 3.776 4.584 11.267 4.773 18.893.296a.471.471 0 0 0 .22-.527l-.5-1.985Z" fill="#D2DDEE"/><path fill-rule="evenodd" clip-rule="evenodd" d="M16.95 20.224c.92-.027 3.347-.223 5.777-1.457l1.633 5.6s-6.29 4.275-14.104 3.173c4.022 1.587 9.502.805 15.052-2.454a.47.47 0 0 0 .22-.528l-1.79-7.086a.462.462 0 0 0-.29-.327.464.464 0 0 0-.437.048c-2.27 1.51-4.469 2.375-7.23 2.308-.267.142-.822.423-1.182.592.58.097 1.954.142 2.351.131Z" fill="#FDFDFE"/><path fill-rule="evenodd" clip-rule="evenodd" d="m23.77 17.557-.012-.048a.463.463 0 0 0-.292-.328.465.465 0 0 0-.437.048c-2.274 1.513-4.476 2.38-7.24 2.313-.268.142-.825.423-1.185.592 0 0 4.902.56 8.525-2.085.249-.181.46-.344.64-.492Z" fill="#FDFDFE"/><path fill-rule="evenodd" clip-rule="evenodd" d="M17.998 9.304c.245-.23.505-.456.748-.638l.494.08-.931 4 .655.109c-.082.258-.165.499-.245.711l-.81-.136a.462.462 0 0 1-.32-.205.464.464 0 0 1-.068-.373l.815-3.5a8.944 8.944 0 0 0-.338-.048Z" fill="url(#b)"/><path fill-rule="evenodd" clip-rule="evenodd" d="m19.22 8.698-.784-.127c-1.568-.253-3.253-.134-4.652.673-1.69.975-2.51 2.681-2.778 4.555-.24 1.677-.063 3.484 1.056 4.834.688.83 1.46 1.304 2.48 1.517l.42-.67c-2.114-.384-3.682-2.21-3.22-5.576.609-4.107 3.657-5.074 6.575-4.601l.904-.605Z" fill="url(#c)"/><path fill-rule="evenodd" clip-rule="evenodd" d="m25.285 3.667-.634.493.131.072-.566 9.48-5.843-.976c-.235.082-.537.194-.775.368a.553.553 0 0 0 .056.11.462.462 0 0 0 .319.206l6.41 1.072a.465.465 0 0 0 .377-.097.464.464 0 0 0 .18-.346l.593-9.934a.465.465 0 0 0-.233-.438l-.015-.01Z" fill="url(#d)"/><path fill-rule="evenodd" clip-rule="evenodd" d="m23.182 17.98 1.655 6.548c-2.413 1.394-5.107 2.481-7.874 2.886-2.23.326-4.589.21-6.68-.693-3.401-1.468-4.969-4.46-5.434-7.784l-.792-.381C4.962 26.824 11.779 30 19.817 27.6c1.812-.54 3.683-1.362 5.563-2.465a.543.543 0 0 0 .23-.576l-1.799-7.12a.463.463 0 0 0-.291-.328c-.203.175-.298.645-.338.869Z" fill="url(#e)"/><path fill-rule="evenodd" clip-rule="evenodd" d="M25.354 3.834a1.85 1.85 0 0 1-.618.48c-1.763-1.004-4.368-1.677-6.357-1.798-3.28-.198-6.54.736-9.005 2.946-2.75 2.463-4.375 5.955-4.704 9.61-.142 1.584-.108 3.2.175 4.727l-.562.896c-.405-1.645-.541-3.541-.355-5.69.416-4.222 2.34-7.757 4.949-10.094 2.558-2.294 5.981-3.348 9.547-3.134 2.12.127 4.952.863 6.831 1.981a.46.46 0 0 1 .099.077v-.001Z" fill="url(#f)"/><path fill-rule="evenodd" clip-rule="evenodd" d="m24.243 9.22-.341 4.07-5.562-.546 5.892.985.26-4.336-.249-.172Z" fill="#FDFDFE"/><path fill-rule="evenodd" clip-rule="evenodd" d="M14.872 19.428c-1.904 1.01-4.099 1.882-6.534 2.828 1.875-1.485 3.213-2.755 4.614-3.784.53.495 1.192.813 1.92.957Z" fill="#455A78"/><path fill-rule="evenodd" clip-rule="evenodd" d="m13.858 19.089-5.71 3.254c2.62-.753 5.368-1.623 7.569-2.823a4.437 4.437 0 0 1-1.859-.431ZM3.938 14.297l8.165-5.047.069.011-8.359 6.478c.013-.278.03-.557.055-.844.02-.201.044-.4.07-.598Z" fill="#FDFDFE"/><path fill-rule="evenodd" clip-rule="evenodd" d="m3.937 14.302 8.229-5.058-.02-.061-8.015 3.971c-.077.377-.142.76-.194 1.148Z" fill="#455A78"/><defs><linearGradient id="a" x1="50.4" y1="24.964" x2="50.4" y2="3.75" gradientUnits="userSpaceOnUse"><stop stop-color="#C8D6EA"/><stop offset=".22" stop-color="#9CB1D0"/><stop offset=".51" stop-color="#C3D2E8"/><stop offset="1" stop-color="#fff"/></linearGradient><linearGradient id="b" x1="18.21" y1="9.562" x2="19.227" y2="12.708" gradientUnits="userSpaceOnUse"><stop stop-color="#B5C6E0"/><stop offset="1" stop-color="#FEFEFE"/></linearGradient><linearGradient id="c" x1="12.212" y1="18.062" x2="16.712" y2="7.606" gradientUnits="userSpaceOnUse"><stop stop-color="#A4B8D6"/><stop offset="1" stop-color="#5D7190"/></linearGradient><linearGradient id="d" x1="21.407" y1="6.276" x2="21.407" y2="14.183" gradientUnits="userSpaceOnUse"><stop stop-color="#A4B8D6"/><stop offset="1" stop-color="#5D7190"/></linearGradient><linearGradient id="e" x1="22.634" y1="24.434" x2="5.312" y2="18.04" gradientUnits="userSpaceOnUse"><stop stop-color="#A4B8D6"/><stop offset="1" stop-color="#C2D1E7"/></linearGradient><linearGradient id="f" x1="13.376" y1="18.766" x2="15.446" y2="3.372" gradientUnits="userSpaceOnUse"><stop stop-color="#C2D1E7"/><stop offset="1" stop-color="#FEFEFE"/></linearGradient></defs></svg>